<svg width="520" height="180" viewBox="0 0 520 180" fill="none" xmlns="http://www.w3.org/2000/svg">
  <rect width="520" height="180" rx="18" fill="none"/>
  <path d="M55 130V52h38c25 0 42 14 42 36s-17 42-42 42H55Zm24-20h11c14 0 21-8 21-22 0-10-7-16-21-16H79v38Z" fill="#0B2A61"/>
  <path d="M143 130V76h20v10c6-8 13-12 23-12h3v20h-7c-10 0-17 5-17 16v20h-22Z" fill="#0B2A61"/>
  <path d="M194 104c0-18 14-30 33-30 20 0 33 12 33 30s-13 30-33 30c-19 0-33-12-33-30Zm22 0c0 8 5 14 11 14 7 0 12-6 12-14 0-8-5-14-12-14-6 0-11 6-11 14Z" fill="#0B2A61"/>
  <path d="M271 130V76h22v54h-22Z" fill="#0B2A61"/>
  <path d="M307 130V52h22v58h32v20h-54Z" fill="#1E88E5"/>
  <path d="M365 130l26-54h23l25 54h-23l-3-9h-23l-3 9h-22Zm31-24h12l-6-17-6 17Z" fill="#0B2A61"/>
  <path d="M443 130V76h22v6c5-5 11-8 19-8 15 0 26 12 26 30s-11 30-26 30c-8 0-14-3-19-8v4h-22Zm32-15c7 0 12-5 12-11 0-7-5-12-12-12-6 0-11 5-11 12 0 6 5 11 11 11Z" fill="#0B2A61"/>
  <circle cx="512" cy="122" r="6" fill="#1E88E5"/>
  <path d="M26 56l16-18 16 18H26Z" fill="#1E88E5"/>
  <path d="M20 72h44" stroke="#0B2A61" stroke-width="6" stroke-linecap="round"/>
</svg>
